<svg width="200" height="200" viewBox="0 0 200 200" fill="none" xmlns="http://www.w3.org/2000/svg">
<path d="M198 100C198 112.87 195.465 125.613 190.54 137.503C185.615 149.393 178.397 160.196 169.296 169.296C160.196 178.397 149.393 185.615 137.503 190.54C125.613 195.465 112.87 198 100 198C87.1305 198 74.3869 195.465 62.497 190.54C50.6071 185.615 39.8037 178.397 30.7035 169.296C21.6034 160.196 14.3848 149.393 9.4598 137.503C4.53484 125.613 2 112.87 2 100C2 87.1304 4.53485 74.3869 9.45981 62.497C14.3848 50.6071 21.6034 39.8037 30.7035 30.7035C39.8037 21.6034 50.6071 14.3848 62.497 9.4598C74.3869 4.53484 87.1305 2 100 2C112.87 2 125.613 4.53485 137.503 9.45981C149.393 14.3848 160.196 21.6034 169.296 30.7035C178.397 39.8037 185.615 50.6071 190.54 62.497C195.465 74.3869 198 87.1305 198 100L198 100Z" stroke="white" stroke-width="4"/>
<path d="M125.589 59.2222C125.589 62.5826 124.927 65.9101 123.641 69.0147C122.355 72.1193 120.47 74.9402 118.094 77.3163C115.718 79.6924 112.897 81.5773 109.792 82.8633C106.688 84.1492 103.36 84.8111 100 84.8111C96.6396 84.8111 93.3121 84.1492 90.2076 82.8633C87.103 81.5773 84.2821 79.6924 81.9059 77.3163C79.5298 74.9401 77.6449 72.1193 76.3589 69.0147C75.073 65.9101 74.4111 62.5826 74.4111 59.2222C74.4111 55.8618 75.073 52.5344 76.359 49.4298C77.6449 46.3252 79.5298 43.5043 81.9059 41.1281C84.2821 38.752 87.103 36.8671 90.2076 35.5812C93.3121 34.2952 96.6396 33.6333 100 33.6333C103.36 33.6333 106.688 34.2952 109.792 35.5812C112.897 36.8671 115.718 38.752 118.094 41.1281C120.47 43.5043 122.355 46.3252 123.641 49.4298C124.927 52.5344 125.589 55.8618 125.589 59.2222L125.589 59.2222Z" stroke="#2C3E50" stroke-width="3.26667"/>
<path d="M55.8411 110.944H144.159C145.776 110.944 147.036 112.345 146.866 113.953L142.024 159.687C141.877 161.071 140.709 162.122 139.317 162.122H60.6834C59.2909 162.122 58.123 161.071 57.9763 159.687L53.134 113.953C52.9637 112.345 54.2242 110.944 55.8411 110.944Z" stroke="#2C3E50" stroke-width="3.26667"/>
<rect x="56.1722" y="165.661" width="87.6556" height="1.63333" rx="0.816667" stroke="#2C3E50" stroke-width="1.63333"/>
<circle cx="100" cy="136.533" r="4.35556" stroke="#2C3E50" stroke-width="2.17778"/>
<path d="M138.111 107.133L123.383 91.9138C122.357 90.8539 120.945 90.2556 119.47 90.2556H80.5298C79.0549 90.2556 77.6431 90.8539 76.6175 91.9138L61.8889 107.133" stroke="#2C3E50" stroke-width="3.26667"/>
</svg>
