<svg width="18" height="16" viewBox="0 0 14 10" fill="none">
<path fill="#34495e" d="M8.50201 1.01299C8.47992 1.00327 8.45574 0.99925 8.43169 1.00131C8.40764 1.00337 8.3845 1.01145 8.36439 1.02479C8.34428 1.03813 8.32784 1.05631 8.31659 1.07767C8.30534 1.09902 8.29964 1.12286 8.30001 1.14699V2.29999C8.30001 2.4326 8.24733 2.55978 8.15356 2.65354C8.05979 2.74731 7.93262 2.79999 7.80001 2.79999C7.13301 2.79999 5.78701 2.80499 4.50001 3.62199C3.51601 4.24599 2.51001 5.38199 1.90501 7.49799C2.92501 6.51499 4.09001 5.98199 5.11001 5.69999C5.73696 5.52684 6.38128 5.4242 7.03101 5.39399C7.29696 5.38231 7.56335 5.38498 7.82901 5.40199H7.84201L7.84701 5.40299H7.84801L7.80001 5.89999L7.85001 5.40199C7.97343 5.41439 8.08783 5.47223 8.17099 5.56426C8.25415 5.65629 8.30013 5.77595 8.30001 5.89999V7.05299C8.30001 7.16099 8.41001 7.22899 8.50201 7.18699L12.486 4.25399C12.4995 4.24395 12.5135 4.2346 12.528 4.22599C12.5498 4.21292 12.5677 4.19445 12.5802 4.17237C12.5927 4.15029 12.5993 4.12536 12.5993 4.09999C12.5993 4.07462 12.5927 4.04969 12.5802 4.02761C12.5677 4.00553 12.5498 3.98706 12.528 3.97399C12.5135 3.96538 12.4995 3.95603 12.486 3.94599L8.50201 1.01299ZM7.30001 6.38599C6.64992 6.39724 6.00384 6.49031 5.37701 6.66299C4.05101 7.03099 2.48101 7.86399 1.43701 9.74299C1.38055 9.84436 1.29059 9.92294 1.18255 9.96527C1.07451 10.0076 0.955114 10.011 0.844824 9.97496C0.734533 9.93891 0.640215 9.86562 0.578035 9.76765C0.515855 9.66968 0.489685 9.55314 0.504008 9.43799C0.968008 5.72799 2.39001 3.77599 3.96401 2.77799C5.20901 1.98799 6.49101 1.83599 7.30001 1.80699V1.14699C7.29992 0.941058 7.35541 0.73892 7.46064 0.561904C7.56587 0.384887 7.71693 0.239557 7.89788 0.141248C8.07883 0.0429387 8.28296 -0.00470413 8.48873 0.00334667C8.69451 0.0113975 8.89429 0.0748433 9.06701 0.18699L13.061 3.12699C13.2261 3.23006 13.3623 3.37345 13.4567 3.54367C13.5511 3.7139 13.6007 3.90534 13.6007 4.09999C13.6007 4.29464 13.5511 4.48608 13.4567 4.6563C13.3623 4.82653 13.2261 4.96992 13.061 5.07299L9.06701 8.01299C8.89429 8.12514 8.69451 8.18858 8.48873 8.19663C8.28296 8.20468 8.07883 8.15704 7.89788 8.05873C7.71693 7.96042 7.56587 7.81509 7.46064 7.63808C7.35541 7.46106 7.29992 7.25892 7.30001 7.05299V6.38599V6.38599Z" fill="black"/>
</svg>