<svg width="24" height="24" viewBox="0 0 24 24" fill="none" xmlns="http://www.w3.org/2000/svg">
<path fill="#34495e" d="M18.7637 9.00001L12.1082 9.00001L13.2637 4.99996C13.4657 4.39196 13.6387 4.01996 13.2637 3.49996C12.8887 2.97996 12.4942 3.00003 11.7637 3.00001L11.1712 2.99997C10.8742 2.99997 9.95466 3.77198 9.76366 3.99998L5.26366 8.99998H2.76367C1.66067 8.99998 1.76366 8.89698 1.76366 9.99998L1.76367 19C1.76367 20.103 1.66067 20 2.76367 20H14.5899C14.9968 19.9986 15.5 20 15.5 20H17L18 17C18 17 19.7639 12.1198 19.7637 12V9.99998C19.7637 8.89698 19.8667 9.00001 18.7637 9.00001ZM2.76367 9.99998H4.76367V19H2.76367V9.99998ZM18.7637 12L16.25 19H5.76366V9.99998L11.2317 3.99998H12.56L11 8.68298C10.9493 8.83329 10.9264 9.04313 10.95 9.2C10.9736 9.35687 11.0073 9.45627 11.1 9.58502C11.1927 9.71377 11.3587 9.81857 11.5 9.89074C11.6413 9.96291 11.8414 10.0004 12 9.99998H18.7637L18.7637 12Z" fill="black"/>
</svg>
