<svg width="16" height="16" viewBox="0 0 16 16" fill="none" xmlns="http://www.w3.org/2000/svg">
<path fill="#34495e" d="M14.44 15C14.3511 15.0012 14.2634 14.9787 14.186 14.9348C14.1087 14.8908 14.0445 14.8271 14 14.75C13.3341 13.6156 12.3849 12.6735 11.2455 12.0162C10.1061 11.3588 8.81543 11.0087 7.5 11V14C7.49951 14.0987 7.46981 14.1951 7.41464 14.2769C7.35947 14.3588 7.28131 14.4225 7.19 14.46C7.09894 14.4983 6.99859 14.5088 6.90159 14.4901C6.8046 14.4714 6.71531 14.4244 6.645 14.355L0.645 8.35501C0.598136 8.30853 0.560939 8.25323 0.535554 8.1923C0.51017 8.13137 0.497101 8.06601 0.497101 8.00001C0.497101 7.934 0.51017 7.86865 0.535554 7.80772C0.560939 7.74679 0.598136 7.69149 0.645 7.64501L6.645 1.64501C6.71531 1.57563 6.8046 1.52863 6.90159 1.50994C6.99859 1.49126 7.09894 1.50172 7.19 1.54001C7.28131 1.57752 7.35947 1.64122 7.41464 1.72308C7.46981 1.80494 7.49951 1.9013 7.5 2.00001V5.05501C9.5686 5.3207 11.47 6.32948 12.8499 7.89334C14.2298 9.45719 14.9939 11.4694 15 13.555C14.9988 13.8894 14.9771 14.2233 14.935 14.555C14.9225 14.659 14.8777 14.7565 14.8068 14.8337C14.7359 14.9108 14.6426 14.9638 14.54 14.985L14.44 15ZM7.25 10C8.5252 9.98169 9.78918 10.2405 10.9546 10.7584C12.12 11.2764 13.1591 12.0412 14 13C13.8496 11.1862 13.0578 9.48533 11.7667 8.2025C10.4756 6.91967 8.76974 6.13881 6.955 6.00001C6.83034 5.98874 6.71444 5.93113 6.63019 5.83856C6.54595 5.74598 6.49949 5.62518 6.5 5.50001V3.20501L1.705 8.00001L6.5 12.795V10.5C6.5 10.3674 6.55268 10.2402 6.64645 10.1465C6.74021 10.0527 6.86739 10 7 10H7.27H7.25Z" fill="black"/>
</svg>
