<svg width="16" height="16" viewBox="0 0 24 24" fill="none" xmlns="http://www.w3.org/2000/svg" >
<path fill="#34495e" fill-rule="evenodd" clip-rule="evenodd" d="M1.5 15C1.5 9.15 6.15 4.5 12 4.5C17.85 4.5 22.5 9.15 22.5 15H21C21 10.05 16.95 6 12 6C7.05 6 3 10.05 3 15H1.5ZM7.5 15C7.5 12.45 9.45 10.5 12 10.5C14.55 10.5 16.5 12.45 16.5 15C16.5 17.55 14.55 19.5 12 19.5C9.45 19.5 7.5 17.55 7.5 15ZM9 15C9 16.65 10.35 18 12 18C13.65 18 15 16.65 15 15C15 13.35 13.65 12 12 12C10.35 12 9 13.35 9 15Z" fill="black"/>
</svg>  